<svg width="265.1803833007813px" height="121.39999999999999px" xmlns="http://www.w3.org/2000/svg" viewBox="117.40980834960936 14.300000000000004 265.1803833007813 121.39999999999999" style="background: #c2ffc2" preserveAspectRatio="xMidYMid"><defs><filter id="editing-hover" x="-100%" y="-100%" width="300%" height="300%"><feFlood flood-color="#545454" result="flood"></feFlood><feComposite operator="in" in2="SourceAlpha" in="flood" result="shadow"></feComposite><feOffset dx="-4" dy="-4" in="SourceGraphic" result="offset-1"></feOffset><feOffset dx="4" dy="4" in="shadow" result="offset-2"></feOffset><feMerge><feMergeNode in="offset-2"></feMergeNode><feMergeNode in="offset-1"></feMergeNode></feMerge></filter></defs><g filter="url('#editing-hover')"><g transform="translate(160.80975890159607, 99)"><path d="M47.17 1.28L47.17 1.28L47.17 1.28Q39.42 1.28 39.42-4.74L39.42-4.74L39.42-4.74Q39.42-7.36 40.54-12.45L40.54-12.45L40.54-12.45Q41.66-17.54 42.05-19.58L42.05-19.58L42.05-19.58Q42.94-24.26 42.94-25.73L42.94-25.73L42.94-25.73Q42.94-28.99 40.51-28.99L40.51-28.99L40.51-28.99Q38.91-28.99 37.38-26.78L37.38-26.78L37.38-26.78Q35.84-24.58 35.14-20.16L35.14-20.16L31.17 0L18.69 1.28L22.14-16.13L22.14-16.13Q22.72-19.01 23.23-22.27L23.23-22.27L23.23-22.27Q23.74-25.54 23.74-26.05L23.74-26.05L23.74-26.05Q23.74-28.99 21.57-28.99L21.57-28.99L21.57-28.99Q20.10-28.99 18.50-26.82L18.50-26.82L18.50-26.82Q16.90-24.64 16-20.16L16-20.16L12.10 0L-0.51 1.28L6.21-32.64L16.64-33.92L15.55-27.46L15.55-27.46Q17.22-30.91 20.29-32.42L20.29-32.42L20.29-32.42Q23.36-33.92 28.16-33.92L28.16-33.92L28.16-33.92Q30.91-33.92 32.70-32.58L32.70-32.58L32.70-32.58Q34.50-31.23 35.07-29.06L35.07-29.06L35.07-29.06Q36.16-31.30 38.94-32.61L38.94-32.61L38.94-32.61Q41.73-33.92 45.15-33.92L45.15-33.92L45.15-33.92Q48.58-33.92 50.27-33.18L50.27-33.18L50.27-33.18Q51.97-32.45 52.99-31.23L52.99-31.23L52.99-31.23Q54.72-28.99 54.72-24.90L54.72-24.90L54.72-24.90Q54.72-20.86 52.99-12.48L52.99-12.48L52.99-12.48Q52.10-8.38 52.10-6.88L52.10-6.88L52.10-6.88Q52.10-5.38 52.96-4.48L52.96-4.48L52.96-4.48Q53.82-3.58 55.10-3.46L55.10-3.46L55.10-3.46Q54.46-1.28 52.26 0L52.26 0L52.26 0Q50.05 1.28 47.17 1.28ZM75.39-3.52L75.39-3.52L75.39-3.52Q73.41 1.28 67.07 1.28L67.07 1.28L67.07 1.28Q63.81 1.28 61.76-0.96L61.76-0.96L61.76-0.96Q60.03-2.94 60.03-4.93L60.03-4.93L60.03-4.93Q60.03-10.11 62.40-20.22L62.40-20.22L64.77-32.64L77.76-33.92L73.86-13.70L73.86-13.70Q72.77-8.96 72.77-7.30L72.77-7.30L72.77-7.30Q72.77-3.65 75.39-3.52ZM65.92-41.54L65.92-41.54L65.92-41.54Q65.92-44.03 68-45.38L68-45.38L68-45.38Q70.08-46.72 73.09-46.72L73.09-46.72L73.09-46.72Q76.10-46.72 77.92-45.38L77.92-45.38L77.92-45.38Q79.74-44.03 79.74-41.54L79.74-41.54L79.74-41.54Q79.74-39.04 77.73-37.76L77.73-37.76L77.73-37.76Q75.71-36.48 72.70-36.48L72.70-36.48L72.70-36.48Q69.70-36.48 67.81-37.76L67.81-37.76L67.81-37.76Q65.92-39.04 65.92-41.54ZM96.13-3.52L96.13-3.52L96.13-3.52Q94.14 1.28 87.81 1.28L87.81 1.28L87.81 1.28Q84.61 1.28 82.56-0.96L82.56-0.96L82.56-0.96Q80.90-2.82 80.90-4.93L80.90-4.93L80.90-4.93Q80.90-9.73 83.14-20.22L83.14-20.22L87.81-44.80L100.80-46.08L94.59-13.70L94.59-13.70Q93.50-8.96 93.50-7.30L93.50-7.30L93.50-7.30Q93.50-3.65 96.13-3.52ZM116.86-3.52L116.86-3.52L116.86-3.52Q114.88 1.28 108.54 1.28L108.54 1.28L108.54 1.28Q105.34 1.28 103.30-0.96L103.30-0.96L103.30-0.96Q101.63-2.82 101.63-4.93L101.63-4.93L101.63-4.93Q101.63-9.73 103.87-20.22L103.87-20.22L108.54-44.80L121.54-46.08L115.33-13.70L115.33-13.70Q114.24-8.96 114.24-7.30L114.24-7.30L114.24-7.30Q114.24-3.65 116.86-3.52ZM148.22-10.82L148.22-10.82L148.22-10.82Q149.82-9.73 149.82-7.33L149.82-7.33L149.82-7.33Q149.82-4.93 148.61-3.39L148.61-3.39L148.61-3.39Q147.39-1.86 145.41-0.83L145.41-0.83L145.41-0.83Q141.31 1.28 136.90 1.28L136.90 1.28L136.90 1.28Q132.48 1.28 129.89 0.32L129.89 0.32L129.89 0.32Q127.30-0.64 125.57-2.43L125.57-2.43L125.57-2.43Q122.18-5.82 122.18-12.03L122.18-12.03L122.18-12.03Q122.18-21.70 127.42-27.58L127.42-27.58L127.42-27.58Q133.06-33.92 142.85-33.92L142.85-33.92L142.85-33.92Q148.93-33.92 151.94-31.36L151.94-31.36L151.94-31.36Q154.18-29.44 154.18-26.30L154.18-26.30L154.18-26.30Q154.18-15.04 134.72-15.04L134.72-15.04L134.72-15.04Q134.46-13.38 134.46-11.97L134.46-11.97L134.46-11.97Q134.46-9.02 135.78-7.90L135.78-7.90L135.78-7.90Q137.09-6.78 139.52-6.78L139.52-6.78L139.52-6.78Q141.95-6.78 144.54-7.90L144.54-7.90L144.54-7.90Q147.14-9.02 148.22-10.82ZM135.17-17.79L135.17-17.79L135.17-17.79Q139.71-17.79 142.34-20.61L142.34-20.61L142.34-20.61Q144.96-23.30 144.96-27.58L144.96-27.58L144.96-27.58Q144.96-29.06 144.42-29.86L144.42-29.86L144.42-29.86Q143.87-30.66 142.78-30.66L142.78-30.66L142.78-30.66Q141.70-30.66 140.77-30.24L140.77-30.24L140.77-30.24Q139.84-29.82 138.88-28.42L138.88-28.42L138.88-28.42Q136.51-25.22 135.17-17.79ZM157.38-6.40L157.38-6.40L157.38-6.40Q157.38-8.13 158.27-12.48L158.27-12.48L161.66-29.76L157.89-29.76L158.14-31.68L158.14-31.68Q165.82-33.98 173.25-39.62L173.25-39.62L176.32-39.62L174.78-32.64L179.78-32.64L179.20-29.76L174.27-29.76L171.01-12.48L171.01-12.48Q170.18-8.51 170.18-7.17L170.18-7.17L170.18-7.17Q170.18-4.10 172.86-3.46L172.86-3.46L172.86-3.46Q172.22-1.28 169.92 0L169.92 0L169.92 0Q167.62 1.28 164.35 1.28L164.35 1.28L164.35 1.28Q161.09 1.28 159.23-0.77L159.23-0.77L159.23-0.77Q157.38-2.82 157.38-6.40Z" fill="#14cb73"></path></g></g><style>text {
  dominant-baseline: central;
  text-anchor: middle;
  font-family: Arial Black;
  font-size: 64px;
}

</style></svg>