<svg width="151.2125px" height="94.39999999999999px" xmlns="http://www.w3.org/2000/svg" viewBox="174.39375 27.800000000000004 151.2125 94.39999999999999" style="background: rgb(194, 255, 194);" preserveAspectRatio="xMidYMid"><defs><filter id="editing-hover" x="-100%" y="-100%" width="300%" height="300%"><feFlood flood-color="#c2ffc2" result="flood"></feFlood><feComposite operator="in" in2="SourceAlpha" in="flood" result="shadow"></feComposite><feOffset dx="-4" dy="-4" in="SourceGraphic" result="offset-1"></feOffset><feOffset dx="4" dy="4" in="shadow" result="offset-2"></feOffset><feMerge><feMergeNode in="offset-2"></feMergeNode><feMergeNode in="offset-1"></feMergeNode></feMerge></filter></defs><g filter="url(#editing-hover)"><g transform="translate(200.30000686645508, 89.34000205993652)"><path d="M24.68-19.96L24.68-19.96Q31.16-19.96 31.16-12.24L31.16-12.24L31.16-1.40L31.16-1.40Q31.16-0.64 30.72-0.22L30.72-0.22L30.72-0.22Q30.28 0.20 29.56 0.20L29.56 0.20L29.56 0.20Q28.84 0.20 28.38-0.22L28.38-0.22L28.38-0.22Q27.92-0.64 27.92-1.40L27.92-1.40L27.92-12.16L27.92-12.16Q27.92-14.84 26.96-16.04L26.96-16.04L26.96-16.04Q26-17.24 23.96-17.24L23.96-17.24L23.96-17.24Q21.52-17.24 20.12-15.60L20.12-15.60L20.12-15.60Q18.72-13.96 18.72-11.16L18.72-11.16L18.72-1.40L18.72-1.40Q18.72-0.64 18.26-0.22L18.26-0.22L18.26-0.22Q17.80 0.20 17.08 0.20L17.08 0.20L17.08 0.20Q16.36 0.20 15.92-0.22L15.92-0.22L15.92-0.22Q15.48-0.64 15.48-1.40L15.48-1.40L15.48-12.16L15.48-12.16Q15.48-14.84 14.52-16.04L14.52-16.04L14.52-16.04Q13.56-17.24 11.48-17.24L11.48-17.24L11.48-17.24Q9.08-17.24 7.66-15.60L7.66-15.60L7.66-15.60Q6.24-13.96 6.24-11.16L6.24-11.16L6.24-1.40L6.24-1.40Q6.24-0.64 5.80-0.22L5.80-0.22L5.80-0.22Q5.36 0.20 4.64 0.20L4.64 0.20L4.64 0.20Q3.92 0.20 3.46-0.22L3.46-0.22L3.46-0.22Q3-0.64 3-1.40L3-1.40L3-18.28L3-18.28Q3-19 3.46-19.44L3.46-19.44L3.46-19.44Q3.92-19.88 4.64-19.88L4.64-19.88L4.64-19.88Q5.32-19.88 5.76-19.46L5.76-19.46L5.76-19.46Q6.20-19.04 6.20-18.32L6.20-18.32L6.20-16.40L6.20-16.40Q7.08-18.12 8.64-19.04L8.64-19.04L8.64-19.04Q10.20-19.96 12.24-19.96L12.24-19.96L12.24-19.96Q16.80-19.96 18.20-16.12L18.20-16.12L18.20-16.12Q19.04-17.88 20.76-18.92L20.76-18.92L20.76-18.92Q22.48-19.96 24.68-19.96L24.68-19.96ZM38.72 0.20L38.72 0.20Q38 0.20 37.54-0.22L37.54-0.22L37.54-0.22Q37.08-0.64 37.08-1.40L37.08-1.40L37.08-18.28L37.08-18.28Q37.08-19.04 37.54-19.46L37.54-19.46L37.54-19.46Q38-19.88 38.72-19.88L38.72-19.88L38.72-19.88Q39.44-19.88 39.88-19.46L39.88-19.46L39.88-19.46Q40.32-19.04 40.32-18.28L40.32-18.28L40.32-1.40L40.32-1.40Q40.32-0.60 39.88-0.20L39.88-0.20L39.88-0.20Q39.44 0.20 38.72 0.20L38.72 0.20ZM38.72-24.08L38.72-24.08Q37.76-24.08 37.16-24.64L37.16-24.64L37.16-24.64Q36.56-25.20 36.56-26.12L36.56-26.12L36.56-26.12Q36.56-27 37.16-27.56L37.16-27.56L37.16-27.56Q37.76-28.12 38.72-28.12L38.72-28.12L38.72-28.12Q39.68-28.12 40.28-27.56L40.28-27.56L40.28-27.56Q40.88-27 40.88-26.12L40.88-26.12L40.88-26.12Q40.88-25.20 40.28-24.64L40.28-24.64L40.28-24.64Q39.68-24.08 38.72-24.08L38.72-24.08ZM48 0.20L48 0.20Q47.28 0.20 46.82-0.22L46.82-0.22L46.82-0.22Q46.36-0.64 46.36-1.40L46.36-1.40L46.36-26.80L46.36-26.80Q46.36-27.56 46.82-27.98L46.82-27.98L46.82-27.98Q47.28-28.40 48-28.40L48-28.40L48-28.40Q48.68-28.40 49.14-27.98L49.14-27.98L49.14-27.98Q49.60-27.56 49.60-26.80L49.60-26.80L49.60-1.40L49.60-1.40Q49.60-0.64 49.14-0.22L49.14-0.22L49.14-0.22Q48.68 0.20 48 0.20L48 0.20ZM57.28 0.20L57.28 0.20Q56.56 0.20 56.10-0.22L56.10-0.22L56.10-0.22Q55.64-0.64 55.64-1.40L55.64-1.40L55.64-26.80L55.64-26.80Q55.64-27.56 56.10-27.98L56.10-27.98L56.10-27.98Q56.56-28.40 57.28-28.40L57.28-28.40L57.28-28.40Q57.96-28.40 58.42-27.98L58.42-27.98L58.42-27.98Q58.88-27.56 58.88-26.80L58.88-26.80L58.88-1.40L58.88-1.40Q58.88-0.64 58.42-0.22L58.42-0.22L58.42-0.22Q57.96 0.20 57.28 0.20L57.28 0.20ZM80-4.52L80-4.52Q80.44-4.52 80.76-4.16L80.76-4.16L80.76-4.16Q81.08-3.80 81.08-3.24L81.08-3.24L81.08-3.24Q81.08-2.24 79.68-1.40L79.68-1.40L79.68-1.40Q78.24-0.56 76.64-0.14L76.64-0.14L76.64-0.14Q75.04 0.28 73.52 0.28L73.52 0.28L73.52 0.28Q69 0.28 66.38-2.40L66.38-2.40L66.38-2.40Q63.76-5.08 63.76-9.80L63.76-9.80L63.76-9.80Q63.76-12.80 64.92-15.10L64.92-15.10L64.92-15.10Q66.08-17.40 68.18-18.68L68.18-18.68L68.18-18.68Q70.28-19.96 72.96-19.96L72.96-19.96L72.96-19.96Q76.76-19.96 79-17.48L79-17.48L79-17.48Q81.24-15 81.24-10.76L81.24-10.76L81.24-10.76Q81.24-9.96 80.92-9.60L80.92-9.60L80.92-9.60Q80.60-9.24 79.88-9.24L79.88-9.24L67-9.24L67-9.24Q67.36-2.36 73.52-2.36L73.52-2.36L73.52-2.36Q75.08-2.36 76.20-2.78L76.20-2.78L76.20-2.78Q77.32-3.20 78.60-3.92L78.60-3.92L78.60-3.92Q79.64-4.52 80-4.52L80-4.52ZM73-17.44L73-17.44Q70.44-17.44 68.90-15.84L68.90-15.84L68.90-15.84Q67.36-14.24 67.08-11.32L67.08-11.32L78.40-11.32L78.40-11.32Q78.32-14.28 76.92-15.86L76.92-15.86L76.92-15.86Q75.52-17.44 73-17.44L73-17.44ZM95-2.36L95-2.36Q96.40-2.24 96.40-1.08L96.40-1.08L96.40-1.08Q96.40-0.40 95.90-0.06L95.90-0.06L95.90-0.06Q95.40 0.28 94.40 0.20L94.40 0.20L93.32 0.12L93.32 0.12Q90.12-0.12 88.60-1.80L88.60-1.80L88.60-1.80Q87.08-3.48 87.08-6.88L87.08-6.88L87.08-16.92L84.40-16.92L84.40-16.92Q83.72-16.92 83.34-17.26L83.34-17.26L83.34-17.26Q82.96-17.60 82.96-18.16L82.96-18.16L82.96-18.16Q82.96-18.76 83.34-19.12L83.34-19.12L83.34-19.12Q83.72-19.48 84.40-19.48L84.40-19.48L87.08-19.48L87.08-24L87.08-24Q87.08-24.76 87.52-25.18L87.52-25.18L87.52-25.18Q87.96-25.60 88.72-25.60L88.72-25.60L88.72-25.60Q89.44-25.60 89.88-25.18L89.88-25.18L89.88-25.18Q90.32-24.76 90.32-24L90.32-24L90.32-19.48L94.76-19.48L94.76-19.48Q95.40-19.48 95.78-19.12L95.78-19.12L95.78-19.12Q96.16-18.76 96.16-18.16L96.16-18.16L96.16-18.16Q96.16-17.60 95.78-17.26L95.78-17.26L95.78-17.26Q95.40-16.92 94.76-16.92L94.76-16.92L90.32-16.92L90.32-6.72L90.32-6.72Q90.32-4.52 91.22-3.54L91.22-3.54L91.22-3.54Q92.12-2.56 93.92-2.44L93.92-2.44L95-2.36Z" fill="#0f9134"></path></g></g><style>text {
  font-size: 64px;
  font-family: Arial Black;
  dominant-baseline: central;
  text-anchor: middle;
}</style></svg>